<?xml version="1.0" standalone="no"?>
<!DOCTYPE svg PUBLIC "-//W3C//DTD SVG 1.1//EN" "http://www.w3.org/Graphics/SVG/1.1/DTD/svg11.dtd" >
<svg xmlns="http://www.w3.org/2000/svg" version="1.1">
    <defs>
        <font id="MaterialIcons-Lite" horiz-adv-x="512">
            <font-face
                    font-family="Material Icons Lite"
                    font-weight="400"
                    font-stretch="normal"
                    units-per-em="512"
                    panose-1="2 0 5 3 0 0 0 0 0 0"
                    ascent="512"
                    descent="0"
                    bbox="0 0 512 512"
                    underline-thickness="50"
                    underline-position="-100"
                    unicode-range="U+0030-10FFFD"
            />
            <missing-glyph/>

            <glyph unicode="" glyph-name="" d=""></glyph>
            <glyph unicode="label" glyph-name="label"
                   d="M376 387l93-131-93-131c-8-11-21-18-35-18h-234c-23 0-43 19-43 42v214c0 23 20 42 43 42h234c14 0 27-7 35-18z"></glyph>
            <glyph unicode="account_circle" glyph-name="account_circle"
                   d="M256 102c53 0 100 28 128 69-1 42-86 66-128 66-43 0-127-24-128-66 28-41 75-69 128-69zM256 405c-35 0-64-29-64-64s29-64 64-64 64 29 64 64-29 64-64 64zM256 469c118 0 213-95 213-213s-95-213-213-213-213 95-213 213 95 213 213 213z"></glyph>
            <glyph unicode="adb" glyph-name="adb"
                   d="M320 320c12 0 21 9 21 21s-9 22-21 22-21-10-21-22 9-21 21-21zM192 320c12 0 21 9 21 21s-9 22-21 22-21-10-21-22 9-21 21-21zM344 419c37-27 61-71 61-120v-22h-298v22c0 49 24 93 61 120l-45 45 18 17 49-49c20 10 42 16 66 16s46-6 66-16l49 49 18-17zM107 171v85h298v-85c0-83-66-150-149-150s-149 67-149 150z"></glyph>
            <glyph unicode="arrow_back" glyph-name="arrow_back"
                   d="M427 277v-42h-260l119-120-30-30-171 171 171 171 30-30-119-120h260z"></glyph>
            <glyph unicode="games" glyph-name="games"
                   d="M352 320h117v-128h-117l-64 64zM192 160l64 64 64-64v-117h-128v117zM160 320l64-64-64-64h-117v128h117zM320 352l-64-64-64 64v117h128v-117z"></glyph>
            <glyph unicode="arrow_forward" glyph-name="arrow_forward"
                   d="M256 427l171-171-171-171-30 30 119 120h-260v42h260l-119 120z"></glyph>
            <glyph unicode="info" glyph-name="info"
                   d="M277 320v43h-42v-43h42zM277 149v128h-42v-128h42zM256 469c118 0 213-95 213-213s-95-213-213-213-213 95-213 213 95 213 213 213z"></glyph>
            <glyph unicode="explore" glyph-name="explore"
                   d="M303 209l81 175-175-81-81-175zM256 469c118 0 213-95 213-213s-95-213-213-213-213 95-213 213 95 213 213 213zM256 279c13 0 23-10 23-23s-10-23-23-23-23 10-23 23 10 23 23 23z"></glyph>
            <glyph unicode="expand_less" glyph-name="expand_less" d="M256 341l128-128-30-30-98 98-98-98-30 30z"></glyph>
            <glyph unicode="google_plus" glyph-name="google_plus"
                   d="M162.9 283.3v-55.9h92.4c-3.7-24-27.9-70.3-92.4-70.3-55.6 0-101 46.1-101 102.9s45.4 102.9 101 102.9c31.7 0 52.8-13.5 64.9-25.1l44.2 42.6c-28.4 26.5-65.2 42.6-109.1 42.6-90.1-0.1-162.9-72.9-162.9-163s72.8-162.9 162.9-162.9c94 0 156.4 66.1 156.4 159.2 0 10.7-1.2 18.9-2.6 27h-153.8zM512 288h-48v48h-48v-48h-48v-48h48v-48h48v48h48z"></glyph>
            <glyph unicode="phone" glyph-name="phone"
                   d="M141 282c31-60 81-110 141-141l47 47c6 6 15 8 22 5 24-8 50-12 76-12 12 0 21-9 21-21v-75c0-12-9-21-21-21-200 0-363 163-363 363 0 12 9 21 21 21h75c12 0 21-9 21-21 0-27 4-52 12-76 2-7 1-16-5-22z"></glyph>
            <glyph unicode="wechat" glyph-name="wechat"
                   d="M165.714 380.286c0 15.714-10.286 26-26 26-15.428 0-31.143-10.286-31.143-26 0-15.428 15.715-25.714 31.143-25.714 15.714 0 26 10.286 26 25.714zM378 235.428c0 10.286-10.286 20.572-26 20.572-10.286 0-20.572-10.286-20.572-20.572 0-10.572 10.286-20.857 20.572-20.857 15.714 0 26 10.286 26 20.857zM310.572 380.286c0 15.714-10.286 26-25.714 26-15.714 0-31.143-10.286-31.143-26 0-15.428 15.429-25.714 31.143-25.714 15.428 0 25.714 10.286 25.714 25.714zM492 235.428c0 10.286-10.572 20.572-26 20.572-10.286 0-20.572-10.286-20.572-20.572 0-10.572 10.286-20.857 20.572-20.857 15.428 0 26 10.286 26 20.857zM416 348.857c-6.572 0.857-13.143 1.143-20 1.143-98.286 0-176-73.428-176-163.714 0-15.143 2.286-29.714 6.572-43.428-6.572-0.572-12.857-0.857-19.428-0.857-26 0-46.572 5.143-72.572 10.286l-72.285-36.286 20.572 62.286c-51.715 36.286-82.857 83.143-82.857 140 0 98.572 93.143 176 207.143 176 101.714 0 191.143-62 208.857-145.429zM585.143 188.572c0-46.572-30.857-88-72.572-119.143l15.715-51.714-56.857 31.143c-20.857-5.143-41.714-10.572-62.286-10.572-98.572 0-176 67.428-176 150.286s77.428 150.286 176 150.286c93.143 0 176-67.428 176-150.286z"></glyph>
            <glyph unicode="read_mode" glyph-name="read_mode"
                   d="M448 107v277h-192v-277h192zM448 427c23 0 43-20 43-43v-277c0-23-20-43-43-43h-384c-23 0-43 20-43 43v277c0 23 20 43 43 43h384zM277 203h150v-32h-150v32zM277 309h150v-32h-150v32zM277 256h150v-32h-150v32z"></glyph>
            <glyph unicode="close" glyph-name="close"
                   d="M405 375l-119-119 119-119-30-30-119 119-119-119-30 30 119 119-119 119 30 30 119-119 119 119z"></glyph>
            <glyph unicode="comment" glyph-name="comment"
                   d="M384 341v43h-256v-43h256zM384 277v43h-256v-43h256zM384 213v43h-256v-43h256zM469 427v-384l-85 85h-299c-23 0-42 20-42 43v256c0 23 19 42 42 42h342c23 0 42-19 42-42z"></glyph>
            <glyph unicode="edit" glyph-name="edit"
                   d="M442 362l-39-39-80 80 39 39c8 8 22 8 30 0l50-50c8-8 8-22 0-30zM64 144l236 236 80-80-236-236h-80v80z"></glyph>
            <glyph unicode="phonelink" glyph-name="phonelink"
                   d="M469 149v150h-85v-150h85zM491 341c12 0 21-9 21-21v-213c0-12-9-22-21-22h-128c-12 0-22 10-22 22v213c0 12 10 21 22 21h128zM85 384v-235h214v-64h-299v64h43v235c0 23 19 43 42 43h384v-43h-384z"></glyph>
            <glyph unicode="delete" glyph-name="delete"
                   d="M405 427v-43h-298v43h74l22 21h106l22-21h74zM128 107v256h256v-256c0-23-20-43-43-43h-170c-23 0-43 20-43 43z"></glyph>
            <glyph unicode="email" glyph-name="email"
                   d="M427 341v43l-171-107-171 107v-43l171-106zM427 427c23 0 42-20 42-43v-256c0-23-19-43-42-43h-342c-23 0-42 20-42 43v256c0 23 19 43 42 43h342z"></glyph>
            <glyph unicode="exit" glyph-name="exit"
                   d="M405 448c23 0 43-20 43-43v-298c0-23-20-43-43-43h-298c-24 0-43 20-43 43v85h43v-85h298v298h-298v-85h-43v85c0 23 19 43 43 43h298zM215 179l55 56h-206v42h206l-55 56 30 30 107-107-107-107z"></glyph>
            <glyph unicode="extension" glyph-name="extension"
                   d="M437 277c29 0 54-24 54-53s-25-53-54-53h-32v-86c0-23-19-42-42-42h-81v32c0 32-26 57-58 57s-58-25-58-57v-32h-81c-23 0-42 19-42 42v81h32c32 0 57 26 57 58s-25 58-57 58h-32v81c0 23 19 42 42 42h86v32c0 29 24 54 53 54s53-25 53-54v-32h86c23 0 42-19 42-42v-86h32z"></glyph>
            <glyph unicode="home" glyph-name="home"
                   d="M213 85h-106v171h-64l213 192 213-192h-64v-171h-106v128h-86v-128z"></glyph>
            <glyph unicode="photo" glyph-name="photo"
                   d="M181 224l-74-96h298l-96 128-74-96zM448 107c0-23-20-43-43-43h-298c-23 0-43 20-43 43v298c0 23 20 43 43 43h298c23 0 43-20 43-43v-298z"></glyph>
            <glyph unicode="sina_weibo" glyph-name="sina_weibo"
                   d="M215.1 63c-84.8-8.4-158 30-163.5 85.6-5.5 55.7 58.8 107.5 143.5 115.9 84.8 8.4 158-30 163.4-85.6 5.6-55.7-58.7-107.6-143.4-115.9zM384.6 247.7c-7.2 2.2-12.2 3.6-8.4 13.1 8.2 20.6 9 38.3 0.1 51-16.6 23.7-62.1 22.5-114.2 0.6 0 0-16.4-7.1-12.2 5.8 8 25.8 6.8 47.3-5.7 59.8-28.3 28.3-103.5-1.1-168-65.6-48.2-48.1-76.2-99.4-76.2-143.7 0-84.6 108.6-136.1 214.8-136.1 139.2 0 231.9 80.9 231.9 145.1 0 38.9-32.7 60.9-62.1 70zM477.1 402.7c-33.6 37.3-83.2 51.5-129 41.8v0c-10.6-2.3-17.3-12.7-15-23.2 2.3-10.6 12.6-17.3 23.2-15 32.6 6.9 67.8-3.2 91.7-29.7s30.4-62.6 20.1-94.2v0c-3.3-10.3 2.3-21.3 12.6-24.7 10.3-3.3 21.3 2.3 24.7 12.6v0.1c14.4 44.2 5.3 95-28.3 132.3zM425.4 356c-16.4 18.2-40.6 25.1-62.8 20.3-9.1-1.9-14.9-11-13-20.1 2-9.1 11-14.9 20-12.9v0c10.9 2.3 22.7-1.1 30.7-9.9 8-8.9 10.2-21 6.7-31.6v0c-2.8-8.8 2-18.4 10.9-21.3 8.9-2.8 18.4 2 21.3 10.9 7 21.7 2.6 46.5-13.8 64.6zM219.8 163.7c-3-5.1-9.5-7.5-14.6-5.4-5.1 2-6.6 7.8-3.7 12.7 3 4.9 9.3 7.3 14.3 5.4 5-1.8 6.8-7.5 4-12.7zM192.7 129.1c-8.2-13.1-25.8-18.8-39-12.8-13 5.9-16.9 21.1-8.7 33.9 8.1 12.7 25.1 18.4 38.2 12.9 13.3-5.7 17.6-20.8 9.5-34zM223.5 221.7c-40.3 10.5-85.9-9.6-103.4-45.1-17.9-36.2-0.6-76.5 40.1-89.7 42.2-13.6 92 7.3 109.3 46.3 17.1 38.3-4.2 77.6-46 88.5z"></glyph>
            <glyph unicode="link" glyph-name="link"
                   d="M363 363c59 0 106-48 106-107s-47-107-106-107h-86v41h86c36 0 66 30 66 66s-30 66-66 66h-86v41h86zM171 235v42h170v-42h-170zM83 256c0-36 30-66 66-66h86v-41h-86c-59 0-106 48-106 107s47 107 106 107h86v-41h-86c-36 0-66-30-66-66z"></glyph>
            <glyph unicode="search" glyph-name="search"
                   d="M203 213c53 0 96 43 96 96s-43 96-96 96-96-43-96-96 43-96 96-96zM331 213l106-106-32-32-106 106v17l-6 6c-24-21-56-33-90-33-77 0-139 61-139 138s62 139 139 139 138-62 138-139c0-34-12-66-33-90l6-6h17z"></glyph>
            <glyph unicode="burst_mode" glyph-name="burst_mode"
                   d="M235 149h213l-68 90-54-68-38 46zM469 405c12 0 22-9 22-21v-256c0-12-10-21-22-21h-256c-12 0-21 9-21 21v256c0 12 9 21 21 21h256zM107 405h42v-298h-42v298zM21 405h43v-298h-43v298z"></glyph>
            <glyph unicode="arrow_up" glyph-name="arrow_up" d="M158 183l-30 30 128 128 128-128-30-30-98 98z"></glyph>
            <glyph unicode="help" glyph-name="help"
                   d="M321 272c12 12 20 29 20 48 0 47-38 85-85 85s-85-38-85-85h42c0 23 20 43 43 43s43-20 43-43c0-12-5-22-13-30l-26-27c-15-16-25-37-25-60v-11h42c0 32 10 44 25 60zM277 107v42h-42v-42h42zM256 469c118 0 213-95 213-213s-95-213-213-213-213 95-213 213 95 213 213 213z"></glyph>
            <glyph unicode="more_vert" glyph-name="more_vert"
                   d="M256 171c23 0 43-20 43-43s-20-43-43-43-43 20-43 43 20 43 43 43zM256 299c23 0 43-20 43-43s-20-43-43-43-43 20-43 43 20 43 43 43zM256 341c-23 0-43 20-43 43s20 43 43 43 43-20 43-43-20-43-43-43z"></glyph>
            <glyph unicode="public" glyph-name="public"
                   d="M382 141c28 30 45 71 45 115 0 71-44 133-107 158v-9c0-23-20-42-43-42h-42v-43c0-12-10-21-22-21h-42v-43h128c12 0 21-9 21-21v-64h21c19 0 35-13 41-30zM235 87v41c-23 0-43 20-43 43v21l-102 102c-3-12-5-25-5-38 0-87 66-159 150-169zM256 469c118 0 213-95 213-213s-95-213-213-213-213 95-213 213 95 213 213 213z"></glyph>
            <glyph unicode="thumb_down" glyph-name="thumb_down"
                   d="M405 448h86v-256h-86v256zM320 448c23 0 43-20 43-43v-213c0-12-5-22-13-30l-140-141-23 23c-6 6-9 13-9 22v7l21 98h-135c-23 0-43 19-43 42l1 2h-1v41c0 6 1 11 3 16l65 150c6 15 21 26 39 26h192z"></glyph>
            <glyph unicode="thumb_up" glyph-name="thumb_up"
                   d="M491 299l-1-2h1v-41c0-6-1-11-3-16l-65-150c-6-15-21-26-39-26h-192c-23 0-43 20-43 43v213c0 12 5 22 13 30l140 141 23-23c6-6 9-13 9-22v-7l-21-98h135c23 0 43-19 43-42zM21 64v256h86v-256h-86z"></glyph>
            <glyph unicode="thumbs_up_down" glyph-name="thumbs_up_down"
                   d="M480 299c18 0 32-14 32-32v-139c0-9-3-17-9-23l-106-105-17 17c-4 4-7 10-7 17 4.952 24.382 10.008 48.659 15 73h-111c-12 0-21 9-21 21v27c0 4 1 7 2 11l49 113c5 11 16 20 29 20h144zM256 384v-27c0-4-1-7-2-11l-49-113c-5-11-16-20-29-20h-144c-18 0-32 14-32 32v139c0 9 3 17 9 23l106 105 17-17c4-4 7-10 7-17-4.952-24.382-10.008-48.659-15-73h111c12 0 21-9 21-21z"></glyph>
            <glyph unicode="view_carousel" glyph-name="view_carousel"
                   d="M384 384h85v-235h-85v235zM43 149v235h85v-235h-85zM149 107v320h214v-320h-214z"></glyph>
            <glyph unicode="view_module" glyph-name="view_module"
                   d="M341 405h107v-128h-107v128zM213 277v128h107v-128h-107zM341 128v128h107v-128h-107zM213 128v128h107v-128h-107zM85 128v128h107v-128h-107zM85 277v128h107v-128h-107z"></glyph>
            <glyph unicode="work" glyph-name="work"
                   d="M299 384v43h-86v-43h86zM427 384c24 0 42-19 42-43v-234c0-24-18-43-42-43h-342c-24 0-42 19-42 43v234c0 24 18 43 42 43h86v43c0 24 18 42 42 42h86c24 0 42-18 42-42v-43h86z"></glyph>
            <glyph unicode="toys" glyph-name="toys"
                   d="M256 256c0-64-53-117-117-117s-118 53-118 117h235zM256 256c-64 0-117 53-117 117s53 118 117 118v-235zM256 256c64 0 117-53 117-117s-53-118-117-118v235zM256 256c0 64 53 117 117 117s118-53 118-117h-235z"></glyph>
            <glyph unicode="mail_outline" glyph-name="mail_outline"
                   d="M256 277l171 107h-342zM427 128v213l-171-106-171 106v-213h342zM427 427c23 0 42-20 42-43v-256c0-23-19-43-42-43h-342c-23 0-42 20-42 43v256c0 23 19 43 42 43h342z"></glyph>
            <glyph unicode="toc" glyph-name="toc"
                   d="M405 235v42h43v-42h-43zM405 363h43v-43h-43v43zM405 149v43h43v-43h-43zM64 149v43h299v-43h-299zM64 235v42h299v-42h-299zM64 320v43h299v-43h-299z"></glyph>
            <glyph unicode="evernote" glyph-name="evernote"
                   d="M249 264h50q3 10-8 21-12 12-27 3.5t-15-24.5zM332 412q11-14 17.5-34.5t8-32 4.5-38.5q4-39 3.5-88.5t-10.5-87.5q-9-61-49-80.5t-95-4.5q-22 6-32 27t-7 44q4 21 24 31.5t43 10.5v-21q2-7-1-9.5t-8.5-2-11.5-0.5q-8-5-9-16.5t8.5-21 27.5-9.5q33 1 40 12t5 48q2 19-14 32t-36 14q-37-3-65 43-1-2-1-10.5v-31.5q-1-15-15-23.5t-31-11.5q-60-5-84 19-34 36-43 120-7 48 22 69h81q4 2 10.5 9.5t7.5 8.5v43q1 4 0.5 14.5t1 17 6.5 11.5q22 11 47 4t38-28h55q43-6 62-27zM87 377h-69l86 88v-70z"></glyph>
            <glyph unicode="facebook" glyph-name="facebook"
                   d="M363 384h-54q-31 0-52.5-22t-21.5-53v-53h-43v-64h43v-149h64v149h64v64h-64v43q0 8 6 14.5t15 6.5h43v64zM0 469h427v-426h-427v426z"></glyph>
            <glyph unicode="github" glyph-name="github"
                   d="M213.5 464q88.5 0 151-62.5t62.5-150.5q0-70-41-125.5t-105-77.5q-14-2-14 11v58q0 27-15 40 44 5 70.5 27t26.5 77q0 34-22 58 11 26-2 57-18 5-58-22-26 7-54 7t-53-7q-18 12-32.5 17.5t-20.5 4.5h-6q-12-31-2-57-22-24-22-58 0-55 27-77t70-27q-11-10-13-29-42-18-62 18-12 20-33 22-2 0-4.5-0.5t-5-3.5 8.5-9q14-7 23-31 1-2 2-4.5t6.5-9.5 13-10.5 20.5-6.5 30 2v-36q0-13-14-11-64 22-105 77.5t-41 125.5q0 88 62.5 150.5t151 62.5z"></glyph>
            <glyph unicode="google" glyph-name="google"
                   d="M235 277h181v-21q0-89-58-151t-145-62q-88 0-150.5 62.5t-62.5 150.5 62.5 150.5 150.5 62.5q89 0 148-65l-38-38q-43 50-110 50-66 0-113-47t-47-113 47-113 113-47q56 0 96.5 36t50.5 92h-125v53z"></glyph>
            <glyph unicode="html5" glyph-name="html5"
                   d="M179 114l91 25 13 138h-163l-4 45h171l4 45h-225l13-135h155l-5-58-50-14-50 14-4 37h-45l7-72zM0 442h357l-32-365-146-51-147 51z"></glyph>
            <glyph unicode="js" glyph-name="js"
                   d="M0 448h384v-384h-384v384zM101 127q15-33 54-33 25 0 39.5 13.5t14.5 40.5v124h-36v-123q0-23-19-23-13 0-24 19zM228 131q19-37 66-37 27 0 43.5 13.5t16.5 36.5q0 22-11.5 34t-36.5 23l-9 4q-12 5-17 9.5t-5 12.5q0 6 4.5 10.5t12.5 4.5q15 0 24-15l27 18q-16 29-51 29-24 0-38.5-13.5t-14.5-34.5 11-33 33-21l9-4q10-5 14.5-7t8-6.5 3.5-10.5q0-8-6.5-13t-17.5-5q-23 0-36 22z"></glyph>
            <glyph unicode="linkedin" glyph-name="linkedin"
                   d="M363 107v121q0 31-22 53t-53 22q-15 0-30-8.5t-23-21.5v26h-64v-192h64v113q0 13 9 22.5t22.5 9.5 23-9.5 9.5-22.5v-113h64zM96 335q16 0 27.5 11t11.5 27-11.5 27.5-27.5 11.5-27.5-11.5-11.5-27.5 11.5-27 27.5-11zM128 107v192h-64v-192h64zM384 469q18 0 30.5-12.5t12.5-29.5v-342q0-17-12.5-29.5t-30.5-12.5h-341q-18 0-30.5 12.5t-12.5 29.5v342q0 17 12.5 29.5t30.5 12.5h341z"></glyph>
            <glyph unicode="twitter" glyph-name="twitter"
                   d="M383 343v-11q0-45-16.5-88.5t-47-79.5-79-58.5-106.5-22.5q-73 0-134 39 10-1 21-1 61 0 109 37-29 1-51.5 18t-30.5 43q8-2 16-2 12 0 23 4-30 6-50 30t-20 55v1q19-10 40-11-39 27-39 73 0 24 12 44 33-40 79.5-64t100.5-27q-2 10-2 20 0 36 25.5 61.5t61.5 25.5q38 0 64-27 30 6 56 21-10-31-39-48 27 3 51 13-18-26-44-45z"></glyph>
            <glyph unicode="wikipedia" glyph-name="wikipedia"
                   d="M40 344q-17 29-38 37l-2 1v15h110v-15q-13-1-21.5-7t-5.5-17q14-33 40.5-94t38.5-89l46 87q-7 14-23 51.5t-27 58.5q-7 10-36 11v14h102l1-14q-6-1-10-2t-7-4.5-2-8.5l29-64q28 60 28 61 3 11-5 14.5t-21 3.5l-1 14h92v-14q-24-2-33-15-14-20-46-89 23-53 43-95l78 180q-6 13-29 19l-1 14 87-1v-14q-6-1-11-3-11-5-18-17l-107-247h-18l-52 120-62-120h-18q-16 33-48 111t-53 118z"></glyph>
            <glyph unicode="paypal" glyph-name="paypal"
                   d="M225 340q0 34-52 34h-15q-7 0-13-4.5t-7-11.5l-14-60v-3q0-5 3.5-8.5t8.5-3.5h12q15 0 28 3t24.5 9 18 17.5 6.5 27.5zM356 307q0-58-48-93-47-35-133-35h-13q-7 0-13-4.5t-7-11.5l-16-69q-2-7-9-12.5t-15-5.5h-46q-7 0-11.5 4t-4.5 11q0 2 3 14h32q8 0 14.5 5t7.5 12l16 69q2 7 8.5 12t13.5 5h13q85 0 132 35t47 92q0 28-11 44 40-20 40-72zM316 347q0-57-48-93-47-35-133-35h-13q-7 0-13-4.5t-7-11.5l-16-68q-2-8-8.5-13.5t-15.5-5.5h-46q-7 0-11.5 4t-4.5 11v4l66 283q1 7 8 12.5t15 5.5h97q14 0 26.5-0.5t26.5-3 24.5-6.5 21-11 17-16 10.5-22.5 4-29.5z"></glyph>
            <glyph unicode="pinterest" glyph-name="pinterest"
                   d="M99 306q0 27 14 46t34 19q17 0 25.5-11t8.5-27q0-10-3-25-4-14-10-34-6-19-9-31-5-20 7.5-34.5t32.5-14.5q35 0 57.5 39.5t22.5 95.5q0 43-27.5 70t-77.5 27q-56 0-90.5-35.5t-34.5-85.5q0-29 17-50 6-6 4-14-2-5-5-20-2-5-5.5-6.5t-7.5-0.5q-26 11-39 37t-13 60q0 22 7 44t22 42.5 36 36.5 51 25.5 65 9.5 65.5-12 51-32 32-46.5 11.5-54.5q0-75-38-124t-98-49q-20 0-37.5 9t-24.5 22q-15-58-18-69-8-30-36-70h-17q-6 51 2 84l33 138q-8 17-8 41z"></glyph>
            <glyph unicode="skype" glyph-name="skype"
                   d="M414 211q13-25 13-52 0-48-34.5-82t-83.5-34q-30 0-56 13-19-3-37-3-85 0-144.5 59t-59.5 142q0 20 4 40-16 27-16 59 0 48 34.5 82t83.5 34q34 0 63-18 17 3 35 3 84 0 143.5-58.5t59.5-141.5q0-22-5-43zM318.5 158.5q14.5 19.5 14.5 44.5 0 21-8.5 35.5t-23.5 23.5q-14 10-34 16-21 6-45 12-20 4-29 7-8 2-16 6t-12 9-4 12q0 11 12 19 14 8 36 8 23 0 34-7 10-8 18-23 6-11 12-16t18-5 20.5 8.5 8.5 19.5-6.5 22.5-20 22-33.5 17-47 6.5q-35 0-60-10-26-9-39.5-27t-13.5-40q0-24 13-41 13-16 35-25 21-9 53-16 23-4 37-9 14-4 22-11 8-8 8-20 0-14-15-25-16-10-41-10-18 0-29.5 5t-17.5 13-11 21q-5 11-12 17-8 6-18 6-13 0-21.5-8t-8.5-19q0-18 13-36t34-29q28-15 72-15 37 0 64 11t41.5 30.5z"></glyph>


            <glyph glyph-name="3" unicode="3"
                   d="M0 0z"/>
            <glyph glyph-name="d" unicode="d"
                   d="M0 0z"/>
            <glyph glyph-name="_" unicode="_"
                   d="M0 0z"/>
            <glyph glyph-name="r" unicode="r"
                   d="M0 0z"/>
            <glyph glyph-name="o" unicode="o"
                   d="M0 0z"/>
            <glyph glyph-name="t" unicode="t"
                   d="M0 0z"/>
            <glyph glyph-name="a" unicode="a"
                   d="M0 0z"/>
            <glyph glyph-name="i" unicode="i"
                   d="M0 0z"/>
            <glyph glyph-name="n" unicode="n"
                   d="M0 0z"/>
            <glyph glyph-name="c" unicode="c"
                   d="M0 0z"/>
            <glyph glyph-name="u" unicode="u"
                   d="M0 0z"/>
            <glyph glyph-name="e" unicode="e"
                   d="M0 0z"/>
            <glyph glyph-name="s" unicode="s"
                   d="M0 0z"/>
            <glyph glyph-name="l" unicode="l"
                   d="M0 0z"/>
            <glyph glyph-name="m" unicode="m"
                   d="M0 0z"/>
            <glyph glyph-name="b" unicode="b"
                   d="M0 0z"/>
            <glyph glyph-name="y" unicode="y"
                   d="M0 0z"/>
            <glyph glyph-name="w" unicode="w"
                   d="M0 0z"/>
            <glyph glyph-name="x" unicode="x"
                   d="M0 0z"/>
            <glyph glyph-name="p" unicode="p"
                   d="M0 0z"/>
            <glyph glyph-name="h" unicode="h"
                   d="M0 0z"/>
            <glyph glyph-name="g" unicode="g"
                   d="M0 0z"/>
            <glyph glyph-name="q" unicode="q"
                   d="M0 0z"/>
            <glyph glyph-name="j" unicode="j"
                   d="M0 0z"/>
            <glyph glyph-name="f" unicode="f"
                   d="M0 0z"/>
            <glyph glyph-name="v" unicode="v"
                   d="M0 0z"/>
            <glyph glyph-name="k" unicode="k"
                   d="M0 0z"/>
            <glyph glyph-name="z" unicode="z"
                   d="M0 0z"/>
            <glyph glyph-name="1" unicode="1"
                   d="M0 0z"/>
            <glyph glyph-name="2" unicode="2"
                   d="M0 0z"/>
            <glyph glyph-name="4" unicode="4"
                   d="M0 0z"/>
            <glyph glyph-name="5" unicode="5"
                   d="M0 0z"/>
            <glyph glyph-name="6" unicode="6"
                   d="M0 0z"/>
            <glyph glyph-name="7" unicode="7"
                   d="M0 0z"/>
            <glyph glyph-name="9" unicode="9"
                   d="M0 0z"/>
            <glyph glyph-name="8" unicode="8"
                   d="M0 0z"/>
            <glyph glyph-name="0" unicode="0"
                   d="M0 0z"/>
        </font>
</defs>
</svg>
