<svg xmlns="http://www.w3.org/2000/svg" viewBox="0 0 46.72 48"><defs><style>.cls-1{fill:#181929;}</style></defs><title>logo</title><path class="cls-1" d="M82.15,43.22C65.43,45.34,55.86,62.58,63.1,77.58A24.06,24.06,0,0,0,101,84.71c1.21-1.13,1.2-1.09.48-2.74-.48-1.09-.35-1.08-1.4-.13a24.74,24.74,0,0,1-3.7,2.69c-.32.15-.79.09-2.59-.33-4.44-1-6.8-.68-7.75,1.12-.48.9-.17.88-3.37.23-5.4-1.08-6.09-1.78-6.7-6.8-.29-2.36-.41-2.67-1.66-4.23-2-2.47-3.2-7.74-3.39-11.29-.08-1.56-.06-3.84.26-3.88s.41.76.61,1.38a22.12,22.12,0,0,0,5.36,8.47c1.5,1.48,2.49,2.28,2.32,1.85a12.86,12.86,0,0,1-.44-6l.14-.47.19.47c.88,2.3,3.67,4.82,5.37,4.86,1.17,0,1.63-.74,1.87-3.1.17-1.68.05-1.53,3.11-3.66,1.87-1.29,2.42-1.76,2.35-1.95-.39-.91-.3-2.63.06-2.63.08,0,0,0,0,.07a7.05,7.05,0,0,0,2.23,1.18l.42.1-.2-.67a11.74,11.74,0,0,1-.31-1.69l-.11-1,.45.42a11.19,11.19,0,0,0,3.58,1.78l1.43.52,1.42-.22a14.33,14.33,0,0,1,6.11.5c1,.41-1.63-4.81-3.72-7.41C98.37,45.81,89.86,42.24,82.15,43.22Z" transform="translate(-60.66 -43.06)"/></svg>