<svg xmlns="http://www.w3.org/2000/svg" width="127.99" height="128" viewBox="0 0 127.99 128"><path d="M127.98 64a64 64 0 0 0-64-64 64 64 0 0 0 0 128 64 64 0 0 0 64-64z" fill="#bdbdbd"/><path d="M121.07 64A57.08 57.08 0 0 0 64 6.92a57.09 57.09 0 0 0 0 114.17A57.09 57.09 0 0 0 121.07 64z" fill="#e0e0e0"/><path d="M103.44 64.66A39.46 39.46 0 0 0 63.99 25.2a39.455 39.455 0 0 0 0 78.91 39.46 39.46 0 0 0 39.45-39.45z" fill="#bdbdbd"/><path d="M64.02 46.1l-14.86 4.25v7.72a42.38 42.38 0 0 0 .36 7.16 26.39 26.39 0 0 0 2.66 7.76 25.09 25.09 0 0 0 11.83 11.35 25.09 25.09 0 0 0 11.84-11.35 26.44 26.44 0 0 0 2.66-7.76 42.5 42.5 0 0 0 .37-7.16v-7.72z" fill="#e0e0e0"/><path d="M102.6 96.29a2.84 2.84 0 0 1-1-1.86 3.12 3.12 0 0 1 .51-2 2.83 2.83 0 0 1 3.85-.62 2.76 2.76 0 0 1 .63 4 2.56 2.56 0 0 1-1.91 1.14 2.72 2.72 0 0 1-2.08-.66zM76.33 112.85a2.86 2.86 0 0 1 1.85-3.45 2.92 2.92 0 0 1 3.48 1.76 2.69 2.69 0 0 1-1.81 3.57 2.73 2.73 0 0 1-3.52-1.88zM43.33 111.08a2.86 2.86 0 0 1 1.85-3.45 2.92 2.92 0 0 1 3.48 1.76 2.69 2.69 0 0 1-1.81 3.57 2.73 2.73 0 0 1-3.52-1.88zM82.66 17.42a2.89 2.89 0 0 1-1.46 1.53 2.7 2.7 0 0 1-2.07.18 2.92 2.92 0 0 1-1.8-3.52 2.69 2.69 0 0 1 3.58-1.76 2.89 2.89 0 0 1 1.69 1.42 2.69 2.69 0 0 1 .06 2.15zM106.51 37.33a2.8 2.8 0 1 1 .75-4 2.81 2.81 0 0 1-.75 4zM114.18 67.45a2.8 2.8 0 0 1 0-5.59 2.8 2.8 0 1 1 0 5.59zM21.47 90.9a2.8 2.8 0 1 1-.75 4 2.81 2.81 0 0 1 .75-4zM13.8 60.78a2.8 2.8 0 0 1 0 5.59 2.8 2.8 0 1 1 0-5.59zM25.33 31.95a2.84 2.84 0 0 1 1 1.86 3.12 3.12 0 0 1-.51 2 2.83 2.83 0 0 1-3.85.62 2.76 2.76 0 0 1-.63-4 2.56 2.56 0 0 1 1.99-1.1 2.72 2.72 0 0 1 2 .62zM51.66 15.36a2.87 2.87 0 0 1-1.85 3.49 2.92 2.92 0 0 1-3.48-1.8 2.69 2.69 0 0 1 1.81-3.57 2.73 2.73 0 0 1 3.52 1.88z" fill="#bdbdbd"/></svg>