<svg xmlns="http://www.w3.org/2000/svg" width="100" height="100" viewBox="0 0 100 100"><defs><clipPath id="a"><circle cx="50" cy="50" r="31.4" fill="none"/></clipPath></defs><title>oauth2</title><circle cx="50" cy="50" r="50" fill="#040000"/><circle cx="50" cy="50" r="47.5" fill="#fff"/><circle cx="50" cy="50" r="45" fill="#040000"/><g clip-path="url(#a)"><path d="M96.5 52.3L52.8 96M49 92.5l43.8-43.8M45.1 89.1L89.2 45m-3.6-3.7L41.3 85.7m-3.8-3.5l44.4-44.5m-48.3 41l44.7-44.6M29.8 75.3l44.9-44.9m-3.6-3.7l-45 45m-3.8-3.5l45.1-45.1m-3.6-3.7L18.4 64.9m41.8-49.1L14.6 61.4M10.7 58l45.8-45.8M6.9 54.5l46-46M3.1 51L49.3 4.9m-1.6 91.2L3.1 51.5m48.3 41L6.7 47.8m3.6-3.7l44.8 44.8M13.9 40.5l44.9 44.8M17.5 36.8l45 44.9m3.7-3.6l-45-45m3.6-3.7l45.1 45.2M28.4 25.8L73.6 71m3.7-3.6L32 22.2m49 41.6L35.6 18.5m3.6-3.7l45.5 45.5m3.7-3.6L42.8 11.2m49.2 42L46.5 7.5m3.6-3.7l45.7 45.7" fill="none" stroke="#fff" stroke-width=".373"/></g><path d="M33.5 61.5l15.6-12a21.2 21.2 0 0 0 4.1-4 5.9 5.9 0 0 0 1.2-3.6 4 4 0 0 0-1.3-3.1 5 5 0 0 0-3.4-1.1 7 7 0 0 0-4 1.3 24.6 24.6 0 0 0-4.4 4.1l-7.9-6.5a36.2 36.2 0 0 1 3.4-3.8 18.6 18.6 0 0 1 3.7-2.8 17.4 17.4 0 0 1 4.4-1.7 23 23 0 0 1 5.5-.6 19 19 0 0 1 6.3 1 15.1 15.1 0 0 1 4.9 2.7 12.7 12.7 0 0 1 3.4 4.2 13 13 0 0 1 1.3 5.4 14.6 14.6 0 0 1-.8 4.5 13 13 0 0 1-2 3.7 20.6 20.6 0 0 1-3.1 3.3c-1.2 1-2.6 2-4.2 3.1L49 60.5h17.5v10h-33v-9z" fill="#fff" stroke="#040000"/><path d="M75.8 78a3.9 3.9 0 0 1-6.1 4.8 3.9 3.9 0 0 1 6.1-4.8zm-4.5 3.5a1.9 1.9 0 0 0 2.7.5 1.8 1.8 0 0 0 .2-2.6 1.9 1.9 0 0 0-2.6-.4 1.8 1.8 0 0 0-.3 2.6zm-6.8 7.8l-1.8.7-5.4-5.7 2-.7.9 1 2.6-1v-1.3l2-.7zm-3.2-3.5l1.5 1.6v-2.1zm-10.6-1c-2 .1-3.3 1.2-3.2 3.5l.2 4h2l-.2-4a1.3 1.3 0 0 1 1.3-1.5 1.3 1.3 0 0 1 1.4 1.5l.2 4h2l-.2-4c0-2.5-1.4-3.5-3.4-3.4zm-9.2-.8l-1.9-.5-1.4 5.3-2.1-.6-.3 1.8 6.1 1.6.5-1.7-2.1-.6zm-7.6-2.4l-1.7-1-1.2 2.5-2.2-1.3 1.4-2.3-1.7-1-3.7 6.2 1.7 1 1.4-2.3 2.2 1.3-1.4 2.3 1.7 1zm-10-61.1a3.9 3.9 0 0 1 6.4-4.5 3.9 3.9 0 0 1-6.2 4.6zm4.6-3.4a1.9 1.9 0 0 0-2.6-.5 1.8 1.8 0 0 0-.3 2.6 1.9 1.9 0 0 0 2.6.5 1.8 1.8 0 0 0 .5-2.5zm7.1-7.6l1.8-.6 5.1 6-2 .7-.9-1.1-2.6.8v1.4l-2 .6zm3 3.7l-1.4-1.7v2.2zm10.6 1.4c2 0 3.4-1 3.4-3.3v-4h-2v4a1.3 1.3 0 0 1-1.2 1.7 1.3 1.3 0 0 1-1.3-1.5v-4h-2v4c0 2.2 1.2 3.3 3.3 3.3zm9.3 1.4l1.9.6 1.6-5.3 2.1.7.5-1.7-6-1.8-.6 1.6 2.1.6zm7.5 2.6l1.7 1.1 1.5-2.3 2.1 1.4-1.5 2.3 1.7 1.1 4-6-1.7-1.1-1.5 2.2-2.2-1.3 1.5-2.2-1.6-1.2z" fill="#fff"/></svg>